<svg width="390" height="390" viewBox="0 0 390 390" fill="none" xmlns="http://www.w3.org/2000/svg">
<rect width="390" height="390" rx="103" fill="#FF0285"/>
<path d="M155.291 118.08C148.605 106.236 145.262 100.315 147.224 94.9313C149.186 89.5479 155.503 87.3101 168.137 82.8345L178.894 79.0237C186.623 76.2856 190.488 74.9165 194.5 74.9165C198.512 74.9165 202.377 76.2856 210.106 79.0237L220.863 82.8345C233.497 87.3101 239.814 89.5479 241.776 94.9313C243.738 100.315 240.395 106.236 233.709 118.08L227.536 129.012C224.371 134.619 222.787 137.423 220.018 139.621C217.247 141.82 214.68 142.555 209.545 144.023C204.625 145.43 199.017 146.667 194.5 146.667C189.983 146.667 184.375 145.43 179.455 144.023C174.32 142.555 171.753 141.82 168.982 139.621C166.212 137.423 164.629 134.619 161.463 129.012L155.291 118.08Z" fill="white" stroke="white" stroke-width="1.5"/>
<path d="M171.532 146.667L151.697 232.094C147.395 250.621 145.245 259.884 147.702 268.595C147.75 268.765 147.799 268.934 147.85 269.103C150.438 277.775 157.198 284.393 170.717 297.626C181.871 308.544 187.448 314.003 194.305 314.082C194.435 314.083 194.565 314.083 194.695 314.082C201.552 314.003 207.129 308.544 218.283 297.626C231.803 284.393 238.563 277.775 241.151 269.103C241.201 268.934 241.25 268.765 241.298 268.595C243.755 259.884 241.605 250.621 237.304 232.094L217.468 146.667" fill="white"/>
<path d="M171.532 146.667L151.697 232.094C147.395 250.621 145.245 259.884 147.702 268.595C147.75 268.765 147.799 268.934 147.85 269.103C150.438 277.775 157.198 284.393 170.717 297.626C181.871 308.544 187.448 314.003 194.305 314.082C194.435 314.083 194.565 314.083 194.695 314.082C201.552 314.003 207.129 308.544 218.283 297.626C231.803 284.393 238.563 277.775 241.151 269.103C241.201 268.934 241.25 268.765 241.298 268.595C243.755 259.884 241.605 250.621 237.304 232.094L217.468 146.667" stroke="white" stroke-width="1.5"/>
</svg>
