<svg width="390" height="390" viewBox="0 0 390 390" fill="none" xmlns="http://www.w3.org/2000/svg">
<rect width="390" height="390" rx="103" fill="#FFC75E"/>
<path d="M99 267C99 273.365 101.529 279.47 106.029 283.971C110.53 288.471 116.635 291 123 291C129.365 291 135.47 288.471 139.971 283.971C144.471 279.47 147 273.365 147 267C147 260.635 144.471 254.53 139.971 250.029C135.47 245.529 129.365 243 123 243C116.635 243 110.53 245.529 106.029 250.029C101.529 254.53 99 260.635 99 267Z" stroke="white" stroke-width="15" stroke-linecap="round" stroke-linejoin="round"/>
<path d="M99 123C99 129.365 101.529 135.47 106.029 139.971C110.53 144.471 116.635 147 123 147C129.365 147 135.47 144.471 139.971 139.971C144.471 135.47 147 129.365 147 123C147 116.635 144.471 110.53 139.971 106.029C135.47 101.529 129.365 99 123 99C116.635 99 110.53 101.529 106.029 106.029C101.529 110.53 99 116.635 99 123Z" stroke="white" stroke-width="15" stroke-linecap="round" stroke-linejoin="round"/>
<path d="M243 267C243 273.365 245.529 279.47 250.029 283.971C254.53 288.471 260.635 291 267 291C273.365 291 279.47 288.471 283.971 283.971C288.471 279.47 291 273.365 291 267C291 260.635 288.471 254.53 283.971 250.029C279.47 245.529 273.365 243 267 243C260.635 243 254.53 245.529 250.029 250.029C245.529 254.53 243 260.635 243 267Z" stroke="white" stroke-width="15" stroke-linecap="round" stroke-linejoin="round"/>
<path d="M123 147V243" stroke="white" stroke-width="15" stroke-linecap="round" stroke-linejoin="round"/>
<path d="M183 123H243C249.365 123 255.47 125.529 259.971 130.029C264.471 134.53 267 140.635 267 147V243" stroke="white" stroke-width="15" stroke-linecap="round" stroke-linejoin="round"/>
<path d="M219 159L183 123L219 87" stroke="white" stroke-width="15" stroke-linecap="round" stroke-linejoin="round"/>
</svg>
