<svg width="390" height="390" viewBox="0 0 390 390" fill="none" xmlns="http://www.w3.org/2000/svg">
<rect width="390" height="390" rx="103" fill="#FF5E9F"/>
<path d="M130.833 169.333H169.333V130.833L124.417 85.9166C138.785 79.0543 154.928 76.8153 170.622 79.5079C186.316 82.2005 200.789 89.6924 212.048 100.952C223.307 112.211 230.799 126.684 233.492 142.378C236.185 158.072 233.946 174.215 227.083 188.583L304.083 265.583C309.189 270.689 312.057 277.613 312.057 284.833C312.057 292.053 309.189 298.978 304.083 304.083C298.978 309.189 292.053 312.057 284.833 312.057C277.613 312.057 270.689 309.189 265.583 304.083L188.583 227.083C174.215 233.946 158.072 236.185 142.378 233.492C126.684 230.799 112.211 223.307 100.952 212.048C89.6924 200.789 82.2005 186.316 79.5079 170.622C76.8153 154.928 79.0543 138.785 85.9166 124.417L130.833 169.333Z" fill="white" stroke="white" stroke-width="2" stroke-linecap="round" stroke-linejoin="round"/>
</svg>
