<svg width="390" height="390" viewBox="0 0 390 390" fill="none" xmlns="http://www.w3.org/2000/svg">
<rect width="390" height="390" rx="103" fill="#FF02C0"/>
<path d="M217.417 114.292C217.417 120.368 215.052 125.892 211.193 129.994L241.258 167.575C242.101 168.63 243.567 168.952 244.776 168.348L275.15 153.161C274.86 151.708 274.708 150.205 274.708 148.667C274.708 136.01 284.968 125.75 297.625 125.75C310.282 125.75 320.542 136.01 320.542 148.667C320.542 159.574 312.922 168.701 302.716 171.016L282.043 281.268C280.265 290.752 271.984 297.625 262.335 297.625H126.666C117.017 297.625 108.736 290.752 106.957 281.268L86.2852 171.016C76.0783 168.701 68.4584 159.574 68.4584 148.667C68.4584 136.01 78.7185 125.75 91.375 125.75C104.032 125.75 114.292 136.01 114.292 148.667C114.292 150.205 114.14 151.708 113.851 153.161L144.225 168.348C145.433 168.952 146.899 168.63 147.743 167.575L177.809 129.994C173.948 125.892 171.583 120.368 171.583 114.292C171.583 101.635 181.843 91.375 194.5 91.375C207.157 91.375 217.417 101.635 217.417 114.292ZM194.5 251.792C207.157 251.792 217.417 241.532 217.417 228.875C217.417 216.218 207.157 205.958 194.5 205.958C181.843 205.958 171.583 216.218 171.583 228.875C171.583 241.532 181.843 251.792 194.5 251.792Z" fill="white"/>
</svg>
