<svg width="390" height="390" viewBox="0 0 390 390" fill="none" xmlns="http://www.w3.org/2000/svg">
<rect width="390" height="390" rx="103" fill="#FF48B6"/>
<path d="M132.227 101.007C132.818 101.014 133.41 101.022 134.019 101.03C140.749 101.159 147.441 101.699 154.144 102.273C155.539 102.388 156.933 102.503 158.328 102.618C162.071 102.926 165.814 103.241 169.557 103.558C173.492 103.89 177.426 104.217 181.361 104.544C187.957 105.094 194.553 105.648 201.148 106.205C208.764 106.848 216.38 107.484 223.997 108.115C231.349 108.726 238.7 109.341 246.051 109.958C249.171 110.22 252.29 110.481 255.41 110.739C259.079 111.044 262.748 111.353 266.417 111.665C267.761 111.779 269.104 111.891 270.448 112.002C272.286 112.153 274.123 112.31 275.961 112.469C276.489 112.511 277.017 112.553 277.561 112.596C286.559 113.394 286.559 113.394 289.307 116.408C290.464 118.909 290.811 120.165 290.358 122.874C289.358 125.086 288.55 126.614 286.271 127.654C282.062 128.973 277.826 130.04 273.525 131.014C272.777 131.186 272.029 131.358 271.258 131.535C268.789 132.103 266.319 132.665 263.849 133.228C262.098 133.63 260.348 134.032 258.597 134.434C254.442 135.387 250.286 136.338 246.13 137.288C241.078 138.442 236.027 139.599 230.977 140.757C230.081 140.962 229.186 141.167 228.264 141.378C221.148 143.009 214.033 144.642 206.918 146.276C202.687 147.248 198.457 148.218 194.225 149.183C190.324 150.073 186.424 150.968 182.525 151.867C181.1 152.195 179.674 152.52 178.247 152.844C176.301 153.286 174.356 153.735 172.412 154.185C171.567 154.375 171.567 154.375 170.705 154.568C166.534 155.545 162.528 156.577 160.109 160.365C159.783 160.864 159.457 161.364 159.121 161.879C158.785 162.415 158.449 162.952 158.103 163.505C157.56 164.344 157.56 164.344 157.006 165.2C156.256 166.363 155.509 167.528 154.767 168.696C153.752 170.292 152.724 171.879 151.69 173.463C150.088 175.918 148.495 178.379 146.905 180.841C145.994 182.25 145.081 183.657 144.166 185.063C140.362 190.91 136.588 196.776 132.825 202.65C128.244 209.8 123.613 216.917 118.958 224.019C116.796 227.318 114.644 230.622 112.499 233.931C112.194 234.4 111.89 234.868 111.576 235.35C109.956 237.846 108.348 240.348 106.754 242.86C106.411 243.398 106.067 243.936 105.713 244.491C105.06 245.514 104.411 246.539 103.765 247.567C99.331 254.493 99.331 254.493 96.1584 255.404C93.0808 255.256 90.9584 254.918 88.492 252.892C86.6804 250.483 86.9764 248.126 87.0902 245.203C87.4284 243.477 87.8267 241.762 88.2697 240.059C88.3969 239.564 88.5242 239.068 88.6553 238.557C89.0818 236.901 89.5166 235.247 89.9513 233.593C90.2617 232.393 90.5715 231.193 90.8808 229.994C91.5508 227.399 92.2243 224.805 92.9006 222.212C94.5439 215.91 96.1713 209.604 97.7995 203.299C98.1845 201.808 98.5698 200.318 98.9553 198.827C102.159 186.439 105.304 174.036 108.422 161.626C108.855 159.904 109.288 158.181 109.722 156.458C111.42 149.704 113.119 142.95 114.808 136.193C115.801 132.221 116.798 128.249 117.799 124.279C118.168 122.811 118.535 121.344 118.9 119.875C119.401 117.862 119.908 115.851 120.416 113.839C120.56 113.254 120.704 112.668 120.853 112.065C122.703 104.813 124.225 100.814 132.227 101.007Z" fill="white"/>
<path d="M312.698 178.689C313.383 178.676 314.069 178.663 314.775 178.65C315.392 178.649 316.009 178.649 316.645 178.648C317.173 178.645 317.701 178.642 318.245 178.638C320.01 178.969 320.633 179.593 321.72 180.99C322 182.649 322 182.649 321.984 184.482C321.989 185.087 321.994 185.692 322 186.315C321.657 188.353 321.205 188.774 319.616 190.069C317.911 190.825 317.911 190.825 315.853 191.529C315.076 191.799 314.299 192.068 313.498 192.346C312.649 192.634 311.8 192.921 310.925 193.217C310.029 193.526 309.133 193.835 308.237 194.144C306.323 194.805 304.407 195.461 302.49 196.115C299.469 197.146 296.451 198.185 293.433 199.226C292.415 199.577 291.397 199.927 290.38 200.278C289.875 200.452 289.371 200.626 288.851 200.805C287.314 201.335 285.777 201.864 284.24 202.392C273.907 205.945 263.593 209.55 253.302 213.219C251.976 213.691 250.65 214.163 249.325 214.635C248.687 214.862 248.049 215.089 247.392 215.323C243.661 216.646 239.917 217.918 236.153 219.145C233.816 219.909 231.486 220.694 229.156 221.48C228.099 221.83 227.039 222.171 225.975 222.501C217.847 225.021 213.316 228.864 208.058 235.464C207.492 236.145 206.925 236.825 206.342 237.527C205.347 238.724 204.361 239.93 203.382 241.141C201.5 243.444 199.567 245.698 197.621 247.947C196.902 248.779 196.183 249.611 195.464 250.443C195.109 250.855 194.753 251.267 194.386 251.691C190.382 256.335 186.409 261.003 182.536 265.756C179.613 269.333 176.582 272.809 173.538 276.284C170.787 279.432 168.116 282.635 165.478 285.878C163.203 288.633 160.86 291.328 158.515 294.025C155.912 297.031 153.433 300.114 151.029 303.283C149.746 304.688 148.801 305.351 147.017 306C144.081 305.948 142.608 305.727 140.352 303.818C138.945 301.134 139.382 299.87 140.001 296.921C140.685 294.894 141.513 292.942 142.363 290.979C142.606 290.406 142.849 289.832 143.099 289.241C143.903 287.347 144.714 285.456 145.526 283.565C146.098 282.221 146.669 280.877 147.239 279.534C148.433 276.724 149.63 273.917 150.829 271.11C152.549 267.084 154.259 263.054 155.965 259.023C158.167 253.823 160.371 248.624 162.579 243.427C162.855 242.777 163.131 242.128 163.415 241.458C163.977 240.134 164.54 238.81 165.102 237.485C167.455 231.946 169.806 226.407 172.157 220.867C173.008 218.863 173.86 216.859 174.712 214.855C177.036 209.385 179.355 203.912 181.613 198.414C181.941 197.619 182.268 196.823 182.606 196.004C183.178 194.61 183.745 193.216 184.307 191.818C184.548 191.232 184.788 190.646 185.036 190.042C185.333 189.305 185.333 189.305 185.636 188.553C186.866 186.213 187.999 185.318 190.517 184.482C191.982 184.353 193.45 184.26 194.919 184.186C196.304 184.114 196.304 184.114 197.716 184.041C198.742 183.99 199.768 183.94 200.794 183.89C201.873 183.835 202.952 183.78 204.031 183.725C206.969 183.575 209.907 183.428 212.845 183.283C215.307 183.161 217.77 183.037 220.232 182.913C226.059 182.62 231.886 182.33 237.714 182.042C243.686 181.747 249.658 181.447 255.629 181.144C260.778 180.883 265.927 180.625 271.077 180.37C274.141 180.218 277.206 180.065 280.271 179.909C302.117 178.797 302.117 178.797 312.698 178.689Z" fill="white"/>
</svg>
